<?xml version="1.0" encoding="utf-8" standalone="no"?>
<!DOCTYPE svg PUBLIC "-//W3C//DTD SVG 1.1//EN"
  "http://www.w3.org/Graphics/SVG/1.1/DTD/svg11.dtd">
<svg xmlns:xlink="http://www.w3.org/1999/xlink" width="460.8pt" height="345.6pt" viewBox="0 0 460.8 345.6" xmlns="http://www.w3.org/2000/svg" version="1.1">
 <metadata>
  <rdf:RDF xmlns:dc="http://purl.org/dc/elements/1.1/" xmlns:cc="http://creativecommons.org/ns#" xmlns:rdf="http://www.w3.org/1999/02/22-rdf-syntax-ns#">
   <cc:Work>
    <dc:type rdf:resource="http://purl.org/dc/dcmitype/StillImage"/>
    <dc:date>2023-01-31T23:40:36.495684</dc:date>
    <dc:format>image/svg+xml</dc:format>
    <dc:creator>
     <cc:Agent>
      <dc:title>Matplotlib v3.5.2, https://matplotlib.org/</dc:title>
     </cc:Agent>
    </dc:creator>
   </cc:Work>
  </rdf:RDF>
 </metadata>
 <defs>
  <style type="text/css">*{stroke-linejoin: round; stroke-linecap: butt}</style>
 </defs>
 <g id="figure_1">
  <g id="patch_1">
   <path d="M 0 345.6 
L 460.8 345.6 
L 460.8 0 
L 0 0 
z
" style="fill: #ffffff"/>
  </g>
  <g id="axes_1">
   <g id="patch_2">
    <path d="M 57.6 307.584 
L 414.72 307.584 
L 414.72 41.472 
L 57.6 41.472 
z
" style="fill: #ffffff"/>
   </g>
   <g id="PathCollection_1">
    <defs>
     <path id="m66af1cf955" d="M 0 3 
C 0.795609 3 1.55874 2.683901 2.12132 2.12132 
C 2.683901 1.55874 3 0.795609 3 0 
C 3 -0.795609 2.683901 -1.55874 2.12132 -2.12132 
C 1.55874 -2.683901 0.795609 -3 0 -3 
C -0.795609 -3 -1.55874 -2.683901 -2.12132 -2.12132 
C -2.683901 -1.55874 -3 -0.795609 -3 0 
C -3 0.795609 -2.683901 1.55874 -2.12132 2.12132 
C -1.55874 2.683901 -0.795609 3 0 3 
z
" style="stroke: #0000ff"/>
    </defs>
    <g clip-path="url(#pd7694f6ffe)">
     <use xlink:href="#m66af1cf955" x="73.832727" y="295.482338" style="fill: #0000ff; stroke: #0000ff"/>
     <use xlink:href="#m66af1cf955" x="73.832727" y="295.48394" style="fill: #0000ff; stroke: #0000ff"/>
     <use xlink:href="#m66af1cf955" x="73.832727" y="295.440768" style="fill: #0000ff; stroke: #0000ff"/>
     <use xlink:href="#m66af1cf955" x="73.832727" y="295.455795" style="fill: #0000ff; stroke: #0000ff"/>
     <use xlink:href="#m66af1cf955" x="73.832727" y="295.484933" style="fill: #0000ff; stroke: #0000ff"/>
    </g>
   </g>
   <g id="PathCollection_2">
    <g clip-path="url(#pd7694f6ffe)">
     <use xlink:href="#m66af1cf955" x="83.670744" y="295.408262" style="fill: #0000ff; stroke: #0000ff"/>
     <use xlink:href="#m66af1cf955" x="83.670744" y="295.364522" style="fill: #0000ff; stroke: #0000ff"/>
     <use xlink:href="#m66af1cf955" x="83.670744" y="295.217826" style="fill: #0000ff; stroke: #0000ff"/>
     <use xlink:href="#m66af1cf955" x="83.670744" y="295.426442" style="fill: #0000ff; stroke: #0000ff"/>
     <use xlink:href="#m66af1cf955" x="83.670744" y="295.483961" style="fill: #0000ff; stroke: #0000ff"/>
    </g>
   </g>
   <g id="PathCollection_3">
    <g clip-path="url(#pd7694f6ffe)">
     <use xlink:href="#m66af1cf955" x="93.50876" y="295.400671" style="fill: #0000ff; stroke: #0000ff"/>
     <use xlink:href="#m66af1cf955" x="93.50876" y="295.468352" style="fill: #0000ff; stroke: #0000ff"/>
     <use xlink:href="#m66af1cf955" x="93.50876" y="295.488" style="fill: #0000ff; stroke: #0000ff"/>
     <use xlink:href="#m66af1cf955" x="93.50876" y="295.456693" style="fill: #0000ff; stroke: #0000ff"/>
     <use xlink:href="#m66af1cf955" x="93.50876" y="295.437741" style="fill: #0000ff; stroke: #0000ff"/>
    </g>
   </g>
   <g id="PathCollection_4">
    <g clip-path="url(#pd7694f6ffe)">
     <use xlink:href="#m66af1cf955" x="103.346777" y="295.071851" style="fill: #0000ff; stroke: #0000ff"/>
     <use xlink:href="#m66af1cf955" x="103.346777" y="295.402498" style="fill: #0000ff; stroke: #0000ff"/>
     <use xlink:href="#m66af1cf955" x="103.346777" y="295.389645" style="fill: #0000ff; stroke: #0000ff"/>
     <use xlink:href="#m66af1cf955" x="103.346777" y="294.288666" style="fill: #0000ff; stroke: #0000ff"/>
     <use xlink:href="#m66af1cf955" x="103.346777" y="295.466433" style="fill: #0000ff; stroke: #0000ff"/>
    </g>
   </g>
   <g id="PathCollection_5">
    <g clip-path="url(#pd7694f6ffe)">
     <use xlink:href="#m66af1cf955" x="113.184793" y="295.190756" style="fill: #0000ff; stroke: #0000ff"/>
     <use xlink:href="#m66af1cf955" x="113.184793" y="295.271926" style="fill: #0000ff; stroke: #0000ff"/>
     <use xlink:href="#m66af1cf955" x="113.184793" y="294.859934" style="fill: #0000ff; stroke: #0000ff"/>
     <use xlink:href="#m66af1cf955" x="113.184793" y="295.340324" style="fill: #0000ff; stroke: #0000ff"/>
     <use xlink:href="#m66af1cf955" x="113.184793" y="294.481693" style="fill: #0000ff; stroke: #0000ff"/>
    </g>
   </g>
   <g id="PathCollection_6">
    <g clip-path="url(#pd7694f6ffe)">
     <use xlink:href="#m66af1cf955" x="123.02281" y="295.443457" style="fill: #0000ff; stroke: #0000ff"/>
     <use xlink:href="#m66af1cf955" x="123.02281" y="294.41155" style="fill: #0000ff; stroke: #0000ff"/>
     <use xlink:href="#m66af1cf955" x="123.02281" y="295.11758" style="fill: #0000ff; stroke: #0000ff"/>
     <use xlink:href="#m66af1cf955" x="123.02281" y="292.938545" style="fill: #0000ff; stroke: #0000ff"/>
     <use xlink:href="#m66af1cf955" x="123.02281" y="294.470486" style="fill: #0000ff; stroke: #0000ff"/>
    </g>
   </g>
   <g id="PathCollection_7">
    <g clip-path="url(#pd7694f6ffe)">
     <use xlink:href="#m66af1cf955" x="132.860826" y="293.552432" style="fill: #0000ff; stroke: #0000ff"/>
     <use xlink:href="#m66af1cf955" x="132.860826" y="294.549158" style="fill: #0000ff; stroke: #0000ff"/>
     <use xlink:href="#m66af1cf955" x="132.860826" y="293.633492" style="fill: #0000ff; stroke: #0000ff"/>
     <use xlink:href="#m66af1cf955" x="132.860826" y="294.884463" style="fill: #0000ff; stroke: #0000ff"/>
     <use xlink:href="#m66af1cf955" x="132.860826" y="291.346719" style="fill: #0000ff; stroke: #0000ff"/>
    </g>
   </g>
   <g id="PathCollection_8">
    <g clip-path="url(#pd7694f6ffe)">
     <use xlink:href="#m66af1cf955" x="142.698843" y="294.574556" style="fill: #0000ff; stroke: #0000ff"/>
     <use xlink:href="#m66af1cf955" x="142.698843" y="293.73567" style="fill: #0000ff; stroke: #0000ff"/>
     <use xlink:href="#m66af1cf955" x="142.698843" y="295.148614" style="fill: #0000ff; stroke: #0000ff"/>
     <use xlink:href="#m66af1cf955" x="142.698843" y="294.000064" style="fill: #0000ff; stroke: #0000ff"/>
     <use xlink:href="#m66af1cf955" x="142.698843" y="290.047214" style="fill: #0000ff; stroke: #0000ff"/>
    </g>
   </g>
   <g id="PathCollection_9">
    <g clip-path="url(#pd7694f6ffe)">
     <use xlink:href="#m66af1cf955" x="152.53686" y="293.537129" style="fill: #0000ff; stroke: #0000ff"/>
     <use xlink:href="#m66af1cf955" x="152.53686" y="292.41121" style="fill: #0000ff; stroke: #0000ff"/>
     <use xlink:href="#m66af1cf955" x="152.53686" y="295.431788" style="fill: #0000ff; stroke: #0000ff"/>
     <use xlink:href="#m66af1cf955" x="152.53686" y="294.827157" style="fill: #0000ff; stroke: #0000ff"/>
     <use xlink:href="#m66af1cf955" x="152.53686" y="291.420993" style="fill: #0000ff; stroke: #0000ff"/>
    </g>
   </g>
   <g id="PathCollection_10">
    <g clip-path="url(#pd7694f6ffe)">
     <use xlink:href="#m66af1cf955" x="162.374876" y="295.389594" style="fill: #0000ff; stroke: #0000ff"/>
     <use xlink:href="#m66af1cf955" x="162.374876" y="294.548597" style="fill: #0000ff; stroke: #0000ff"/>
     <use xlink:href="#m66af1cf955" x="162.374876" y="295.240841" style="fill: #0000ff; stroke: #0000ff"/>
     <use xlink:href="#m66af1cf955" x="162.374876" y="294.079313" style="fill: #0000ff; stroke: #0000ff"/>
     <use xlink:href="#m66af1cf955" x="162.374876" y="293.153971" style="fill: #0000ff; stroke: #0000ff"/>
    </g>
   </g>
   <g id="PathCollection_11">
    <g clip-path="url(#pd7694f6ffe)">
     <use xlink:href="#m66af1cf955" x="172.212893" y="295.129739" style="fill: #0000ff; stroke: #0000ff"/>
     <use xlink:href="#m66af1cf955" x="172.212893" y="294.976146" style="fill: #0000ff; stroke: #0000ff"/>
     <use xlink:href="#m66af1cf955" x="172.212893" y="295.038516" style="fill: #0000ff; stroke: #0000ff"/>
     <use xlink:href="#m66af1cf955" x="172.212893" y="294.611362" style="fill: #0000ff; stroke: #0000ff"/>
     <use xlink:href="#m66af1cf955" x="172.212893" y="293.474668" style="fill: #0000ff; stroke: #0000ff"/>
    </g>
   </g>
   <g id="PathCollection_12">
    <g clip-path="url(#pd7694f6ffe)">
     <use xlink:href="#m66af1cf955" x="182.050909" y="295.131032" style="fill: #0000ff; stroke: #0000ff"/>
     <use xlink:href="#m66af1cf955" x="182.050909" y="293.889088" style="fill: #0000ff; stroke: #0000ff"/>
     <use xlink:href="#m66af1cf955" x="182.050909" y="294.256862" style="fill: #0000ff; stroke: #0000ff"/>
     <use xlink:href="#m66af1cf955" x="182.050909" y="294.946458" style="fill: #0000ff; stroke: #0000ff"/>
     <use xlink:href="#m66af1cf955" x="182.050909" y="285.336642" style="fill: #0000ff; stroke: #0000ff"/>
    </g>
   </g>
   <g id="PathCollection_13">
    <g clip-path="url(#pd7694f6ffe)">
     <use xlink:href="#m66af1cf955" x="191.888926" y="286.138656" style="fill: #0000ff; stroke: #0000ff"/>
     <use xlink:href="#m66af1cf955" x="191.888926" y="285.764497" style="fill: #0000ff; stroke: #0000ff"/>
     <use xlink:href="#m66af1cf955" x="191.888926" y="293.604858" style="fill: #0000ff; stroke: #0000ff"/>
     <use xlink:href="#m66af1cf955" x="191.888926" y="285.604076" style="fill: #0000ff; stroke: #0000ff"/>
     <use xlink:href="#m66af1cf955" x="191.888926" y="289.524859" style="fill: #0000ff; stroke: #0000ff"/>
    </g>
   </g>
   <g id="PathCollection_14">
    <g clip-path="url(#pd7694f6ffe)">
     <use xlink:href="#m66af1cf955" x="201.726942" y="263.593872" style="fill: #0000ff; stroke: #0000ff"/>
     <use xlink:href="#m66af1cf955" x="201.726942" y="293.953969" style="fill: #0000ff; stroke: #0000ff"/>
     <use xlink:href="#m66af1cf955" x="201.726942" y="294.223063" style="fill: #0000ff; stroke: #0000ff"/>
     <use xlink:href="#m66af1cf955" x="201.726942" y="276.197513" style="fill: #0000ff; stroke: #0000ff"/>
     <use xlink:href="#m66af1cf955" x="201.726942" y="283.739837" style="fill: #0000ff; stroke: #0000ff"/>
    </g>
   </g>
   <g id="PathCollection_15">
    <g clip-path="url(#pd7694f6ffe)">
     <use xlink:href="#m66af1cf955" x="211.564959" y="286.777402" style="fill: #0000ff; stroke: #0000ff"/>
     <use xlink:href="#m66af1cf955" x="211.564959" y="286.464894" style="fill: #0000ff; stroke: #0000ff"/>
     <use xlink:href="#m66af1cf955" x="211.564959" y="293.031788" style="fill: #0000ff; stroke: #0000ff"/>
     <use xlink:href="#m66af1cf955" x="211.564959" y="254.755934" style="fill: #0000ff; stroke: #0000ff"/>
     <use xlink:href="#m66af1cf955" x="211.564959" y="286.463453" style="fill: #0000ff; stroke: #0000ff"/>
    </g>
   </g>
   <g id="PathCollection_16">
    <g clip-path="url(#pd7694f6ffe)">
     <use xlink:href="#m66af1cf955" x="221.402975" y="294.380766" style="fill: #0000ff; stroke: #0000ff"/>
     <use xlink:href="#m66af1cf955" x="221.402975" y="271.69368" style="fill: #0000ff; stroke: #0000ff"/>
     <use xlink:href="#m66af1cf955" x="221.402975" y="293.812349" style="fill: #0000ff; stroke: #0000ff"/>
     <use xlink:href="#m66af1cf955" x="221.402975" y="288.732745" style="fill: #0000ff; stroke: #0000ff"/>
     <use xlink:href="#m66af1cf955" x="221.402975" y="252.894003" style="fill: #0000ff; stroke: #0000ff"/>
    </g>
   </g>
   <g id="PathCollection_17">
    <g clip-path="url(#pd7694f6ffe)">
     <use xlink:href="#m66af1cf955" x="231.240992" y="293.291353" style="fill: #0000ff; stroke: #0000ff"/>
     <use xlink:href="#m66af1cf955" x="231.240992" y="276.538184" style="fill: #0000ff; stroke: #0000ff"/>
     <use xlink:href="#m66af1cf955" x="231.240992" y="274.880627" style="fill: #0000ff; stroke: #0000ff"/>
     <use xlink:href="#m66af1cf955" x="231.240992" y="286.544844" style="fill: #0000ff; stroke: #0000ff"/>
     <use xlink:href="#m66af1cf955" x="231.240992" y="293.382847" style="fill: #0000ff; stroke: #0000ff"/>
    </g>
   </g>
   <g id="PathCollection_18">
    <g clip-path="url(#pd7694f6ffe)">
     <use xlink:href="#m66af1cf955" x="241.079008" y="292.389372" style="fill: #0000ff; stroke: #0000ff"/>
     <use xlink:href="#m66af1cf955" x="241.079008" y="259.351828" style="fill: #0000ff; stroke: #0000ff"/>
     <use xlink:href="#m66af1cf955" x="241.079008" y="283.17526" style="fill: #0000ff; stroke: #0000ff"/>
     <use xlink:href="#m66af1cf955" x="241.079008" y="293.181022" style="fill: #0000ff; stroke: #0000ff"/>
     <use xlink:href="#m66af1cf955" x="241.079008" y="293.426054" style="fill: #0000ff; stroke: #0000ff"/>
    </g>
   </g>
   <g id="PathCollection_19">
    <g clip-path="url(#pd7694f6ffe)">
     <use xlink:href="#m66af1cf955" x="250.917025" y="287.742004" style="fill: #0000ff; stroke: #0000ff"/>
     <use xlink:href="#m66af1cf955" x="250.917025" y="282.330434" style="fill: #0000ff; stroke: #0000ff"/>
     <use xlink:href="#m66af1cf955" x="250.917025" y="243.044801" style="fill: #0000ff; stroke: #0000ff"/>
     <use xlink:href="#m66af1cf955" x="250.917025" y="225.56161" style="fill: #0000ff; stroke: #0000ff"/>
     <use xlink:href="#m66af1cf955" x="250.917025" y="286.763711" style="fill: #0000ff; stroke: #0000ff"/>
    </g>
   </g>
   <g id="PathCollection_20">
    <g clip-path="url(#pd7694f6ffe)">
     <use xlink:href="#m66af1cf955" x="260.755041" y="290.993152" style="fill: #0000ff; stroke: #0000ff"/>
     <use xlink:href="#m66af1cf955" x="260.755041" y="293.138324" style="fill: #0000ff; stroke: #0000ff"/>
     <use xlink:href="#m66af1cf955" x="260.755041" y="246.265266" style="fill: #0000ff; stroke: #0000ff"/>
     <use xlink:href="#m66af1cf955" x="260.755041" y="270.943284" style="fill: #0000ff; stroke: #0000ff"/>
     <use xlink:href="#m66af1cf955" x="260.755041" y="294.134349" style="fill: #0000ff; stroke: #0000ff"/>
    </g>
   </g>
   <g id="PathCollection_21">
    <g clip-path="url(#pd7694f6ffe)">
     <use xlink:href="#m66af1cf955" x="270.593058" y="291.81683" style="fill: #0000ff; stroke: #0000ff"/>
     <use xlink:href="#m66af1cf955" x="270.593058" y="268.042899" style="fill: #0000ff; stroke: #0000ff"/>
     <use xlink:href="#m66af1cf955" x="270.593058" y="263.60166" style="fill: #0000ff; stroke: #0000ff"/>
     <use xlink:href="#m66af1cf955" x="270.593058" y="276.952658" style="fill: #0000ff; stroke: #0000ff"/>
     <use xlink:href="#m66af1cf955" x="270.593058" y="259.402018" style="fill: #0000ff; stroke: #0000ff"/>
    </g>
   </g>
   <g id="PathCollection_22">
    <g clip-path="url(#pd7694f6ffe)">
     <use xlink:href="#m66af1cf955" x="280.431074" y="277.80237" style="fill: #0000ff; stroke: #0000ff"/>
     <use xlink:href="#m66af1cf955" x="280.431074" y="292.531862" style="fill: #0000ff; stroke: #0000ff"/>
     <use xlink:href="#m66af1cf955" x="280.431074" y="283.280141" style="fill: #0000ff; stroke: #0000ff"/>
     <use xlink:href="#m66af1cf955" x="280.431074" y="291.829908" style="fill: #0000ff; stroke: #0000ff"/>
     <use xlink:href="#m66af1cf955" x="280.431074" y="229.012413" style="fill: #0000ff; stroke: #0000ff"/>
    </g>
   </g>
   <g id="PathCollection_23">
    <g clip-path="url(#pd7694f6ffe)">
     <use xlink:href="#m66af1cf955" x="290.269091" y="279.927309" style="fill: #0000ff; stroke: #0000ff"/>
     <use xlink:href="#m66af1cf955" x="290.269091" y="259.50938" style="fill: #0000ff; stroke: #0000ff"/>
     <use xlink:href="#m66af1cf955" x="290.269091" y="272.512734" style="fill: #0000ff; stroke: #0000ff"/>
     <use xlink:href="#m66af1cf955" x="290.269091" y="290.731245" style="fill: #0000ff; stroke: #0000ff"/>
     <use xlink:href="#m66af1cf955" x="290.269091" y="293.088013" style="fill: #0000ff; stroke: #0000ff"/>
    </g>
   </g>
   <g id="PathCollection_24">
    <g clip-path="url(#pd7694f6ffe)">
     <use xlink:href="#m66af1cf955" x="300.107107" y="255.281361" style="fill: #0000ff; stroke: #0000ff"/>
     <use xlink:href="#m66af1cf955" x="300.107107" y="263.352289" style="fill: #0000ff; stroke: #0000ff"/>
     <use xlink:href="#m66af1cf955" x="300.107107" y="288.339017" style="fill: #0000ff; stroke: #0000ff"/>
     <use xlink:href="#m66af1cf955" x="300.107107" y="285.856156" style="fill: #0000ff; stroke: #0000ff"/>
     <use xlink:href="#m66af1cf955" x="300.107107" y="291.321426" style="fill: #0000ff; stroke: #0000ff"/>
    </g>
   </g>
   <g id="PathCollection_25">
    <g clip-path="url(#pd7694f6ffe)">
     <use xlink:href="#m66af1cf955" x="309.945124" y="293.860398" style="fill: #0000ff; stroke: #0000ff"/>
     <use xlink:href="#m66af1cf955" x="309.945124" y="267.371806" style="fill: #0000ff; stroke: #0000ff"/>
     <use xlink:href="#m66af1cf955" x="309.945124" y="264.028565" style="fill: #0000ff; stroke: #0000ff"/>
     <use xlink:href="#m66af1cf955" x="309.945124" y="141.092916" style="fill: #0000ff; stroke: #0000ff"/>
     <use xlink:href="#m66af1cf955" x="309.945124" y="295.15751" style="fill: #0000ff; stroke: #0000ff"/>
    </g>
   </g>
   <g id="PathCollection_26">
    <g clip-path="url(#pd7694f6ffe)">
     <use xlink:href="#m66af1cf955" x="319.78314" y="279.420957" style="fill: #0000ff; stroke: #0000ff"/>
     <use xlink:href="#m66af1cf955" x="319.78314" y="239.159811" style="fill: #0000ff; stroke: #0000ff"/>
     <use xlink:href="#m66af1cf955" x="319.78314" y="251.061977" style="fill: #0000ff; stroke: #0000ff"/>
     <use xlink:href="#m66af1cf955" x="319.78314" y="284.749944" style="fill: #0000ff; stroke: #0000ff"/>
     <use xlink:href="#m66af1cf955" x="319.78314" y="290.181836" style="fill: #0000ff; stroke: #0000ff"/>
    </g>
   </g>
   <g id="PathCollection_27">
    <g clip-path="url(#pd7694f6ffe)">
     <use xlink:href="#m66af1cf955" x="329.621157" y="284.780365" style="fill: #0000ff; stroke: #0000ff"/>
     <use xlink:href="#m66af1cf955" x="329.621157" y="265.343958" style="fill: #0000ff; stroke: #0000ff"/>
     <use xlink:href="#m66af1cf955" x="329.621157" y="256.883024" style="fill: #0000ff; stroke: #0000ff"/>
     <use xlink:href="#m66af1cf955" x="329.621157" y="253.553317" style="fill: #0000ff; stroke: #0000ff"/>
     <use xlink:href="#m66af1cf955" x="329.621157" y="280.480188" style="fill: #0000ff; stroke: #0000ff"/>
    </g>
   </g>
   <g id="PathCollection_28">
    <g clip-path="url(#pd7694f6ffe)">
     <use xlink:href="#m66af1cf955" x="339.459174" y="229.792363" style="fill: #0000ff; stroke: #0000ff"/>
     <use xlink:href="#m66af1cf955" x="339.459174" y="53.568" style="fill: #0000ff; stroke: #0000ff"/>
     <use xlink:href="#m66af1cf955" x="339.459174" y="245.601724" style="fill: #0000ff; stroke: #0000ff"/>
     <use xlink:href="#m66af1cf955" x="339.459174" y="196.202256" style="fill: #0000ff; stroke: #0000ff"/>
     <use xlink:href="#m66af1cf955" x="339.459174" y="280.948192" style="fill: #0000ff; stroke: #0000ff"/>
    </g>
   </g>
   <g id="PathCollection_29">
    <g clip-path="url(#pd7694f6ffe)">
     <use xlink:href="#m66af1cf955" x="349.29719" y="209.513644" style="fill: #0000ff; stroke: #0000ff"/>
     <use xlink:href="#m66af1cf955" x="349.29719" y="281.672693" style="fill: #0000ff; stroke: #0000ff"/>
     <use xlink:href="#m66af1cf955" x="349.29719" y="95.773847" style="fill: #0000ff; stroke: #0000ff"/>
     <use xlink:href="#m66af1cf955" x="349.29719" y="287.358195" style="fill: #0000ff; stroke: #0000ff"/>
     <use xlink:href="#m66af1cf955" x="349.29719" y="262.86741" style="fill: #0000ff; stroke: #0000ff"/>
    </g>
   </g>
   <g id="PathCollection_30">
    <g clip-path="url(#pd7694f6ffe)">
     <use xlink:href="#m66af1cf955" x="359.135207" y="290.991246" style="fill: #0000ff; stroke: #0000ff"/>
     <use xlink:href="#m66af1cf955" x="359.135207" y="288.503084" style="fill: #0000ff; stroke: #0000ff"/>
     <use xlink:href="#m66af1cf955" x="359.135207" y="217.795782" style="fill: #0000ff; stroke: #0000ff"/>
     <use xlink:href="#m66af1cf955" x="359.135207" y="107.639374" style="fill: #0000ff; stroke: #0000ff"/>
     <use xlink:href="#m66af1cf955" x="359.135207" y="288.228351" style="fill: #0000ff; stroke: #0000ff"/>
    </g>
   </g>
   <g id="PathCollection_31">
    <g clip-path="url(#pd7694f6ffe)">
     <use xlink:href="#m66af1cf955" x="368.973223" y="146.693545" style="fill: #0000ff; stroke: #0000ff"/>
     <use xlink:href="#m66af1cf955" x="368.973223" y="231.84194" style="fill: #0000ff; stroke: #0000ff"/>
     <use xlink:href="#m66af1cf955" x="368.973223" y="284.71239" style="fill: #0000ff; stroke: #0000ff"/>
     <use xlink:href="#m66af1cf955" x="368.973223" y="281.629739" style="fill: #0000ff; stroke: #0000ff"/>
     <use xlink:href="#m66af1cf955" x="368.973223" y="277.190769" style="fill: #0000ff; stroke: #0000ff"/>
    </g>
   </g>
   <g id="PathCollection_32">
    <g clip-path="url(#pd7694f6ffe)">
     <use xlink:href="#m66af1cf955" x="378.81124" y="222.52275" style="fill: #0000ff; stroke: #0000ff"/>
     <use xlink:href="#m66af1cf955" x="378.81124" y="268.248859" style="fill: #0000ff; stroke: #0000ff"/>
     <use xlink:href="#m66af1cf955" x="378.81124" y="292.699233" style="fill: #0000ff; stroke: #0000ff"/>
     <use xlink:href="#m66af1cf955" x="378.81124" y="101.919603" style="fill: #0000ff; stroke: #0000ff"/>
     <use xlink:href="#m66af1cf955" x="378.81124" y="260.286323" style="fill: #0000ff; stroke: #0000ff"/>
    </g>
   </g>
   <g id="PathCollection_33">
    <g clip-path="url(#pd7694f6ffe)">
     <use xlink:href="#m66af1cf955" x="388.649256" y="211.266931" style="fill: #0000ff; stroke: #0000ff"/>
     <use xlink:href="#m66af1cf955" x="388.649256" y="211.276074" style="fill: #0000ff; stroke: #0000ff"/>
     <use xlink:href="#m66af1cf955" x="388.649256" y="248.666129" style="fill: #0000ff; stroke: #0000ff"/>
     <use xlink:href="#m66af1cf955" x="388.649256" y="240.221372" style="fill: #0000ff; stroke: #0000ff"/>
     <use xlink:href="#m66af1cf955" x="388.649256" y="218.469666" style="fill: #0000ff; stroke: #0000ff"/>
    </g>
   </g>
   <g id="PathCollection_34">
    <g clip-path="url(#pd7694f6ffe)">
     <use xlink:href="#m66af1cf955" x="398.487273" y="293.668609" style="fill: #0000ff; stroke: #0000ff"/>
     <use xlink:href="#m66af1cf955" x="398.487273" y="204.390436" style="fill: #0000ff; stroke: #0000ff"/>
     <use xlink:href="#m66af1cf955" x="398.487273" y="220.832386" style="fill: #0000ff; stroke: #0000ff"/>
     <use xlink:href="#m66af1cf955" x="398.487273" y="278.547316" style="fill: #0000ff; stroke: #0000ff"/>
     <use xlink:href="#m66af1cf955" x="398.487273" y="289.732823" style="fill: #0000ff; stroke: #0000ff"/>
    </g>
   </g>
   <g id="PathCollection_35">
    <defs>
     <path id="m2691885def" d="M 0 3 
C 0.795609 3 1.55874 2.683901 2.12132 2.12132 
C 2.683901 1.55874 3 0.795609 3 0 
C 3 -0.795609 2.683901 -1.55874 2.12132 -2.12132 
C 1.55874 -2.683901 0.795609 -3 0 -3 
C -0.795609 -3 -1.55874 -2.683901 -2.12132 -2.12132 
C -2.683901 -1.55874 -3 -0.795609 -3 0 
C -3 0.795609 -2.683901 1.55874 -2.12132 2.12132 
C -1.55874 2.683901 -0.795609 3 0 3 
z
" style="stroke: #ff0000"/>
    </defs>
    <g clip-path="url(#pd7694f6ffe)">
     <use xlink:href="#m2691885def" x="73.832727" y="295.469555" style="fill: #ff0000; stroke: #ff0000"/>
     <use xlink:href="#m2691885def" x="83.670744" y="295.380202" style="fill: #ff0000; stroke: #ff0000"/>
     <use xlink:href="#m2691885def" x="93.50876" y="295.450291" style="fill: #ff0000; stroke: #ff0000"/>
     <use xlink:href="#m2691885def" x="103.346777" y="295.123819" style="fill: #ff0000; stroke: #ff0000"/>
     <use xlink:href="#m2691885def" x="113.184793" y="295.028927" style="fill: #ff0000; stroke: #ff0000"/>
     <use xlink:href="#m2691885def" x="123.02281" y="294.476324" style="fill: #ff0000; stroke: #ff0000"/>
     <use xlink:href="#m2691885def" x="132.860826" y="293.593253" style="fill: #ff0000; stroke: #ff0000"/>
     <use xlink:href="#m2691885def" x="142.698843" y="293.501224" style="fill: #ff0000; stroke: #ff0000"/>
     <use xlink:href="#m2691885def" x="152.53686" y="293.525655" style="fill: #ff0000; stroke: #ff0000"/>
     <use xlink:href="#m2691885def" x="162.374876" y="294.482463" style="fill: #ff0000; stroke: #ff0000"/>
     <use xlink:href="#m2691885def" x="172.212893" y="294.646086" style="fill: #ff0000; stroke: #ff0000"/>
     <use xlink:href="#m2691885def" x="182.050909" y="292.712016" style="fill: #ff0000; stroke: #ff0000"/>
     <use xlink:href="#m2691885def" x="191.888926" y="288.127389" style="fill: #ff0000; stroke: #ff0000"/>
     <use xlink:href="#m2691885def" x="201.726942" y="282.341651" style="fill: #ff0000; stroke: #ff0000"/>
     <use xlink:href="#m2691885def" x="211.564959" y="281.498694" style="fill: #ff0000; stroke: #ff0000"/>
     <use xlink:href="#m2691885def" x="221.402975" y="280.302709" style="fill: #ff0000; stroke: #ff0000"/>
     <use xlink:href="#m2691885def" x="231.240992" y="284.927571" style="fill: #ff0000; stroke: #ff0000"/>
     <use xlink:href="#m2691885def" x="241.079008" y="284.304707" style="fill: #ff0000; stroke: #ff0000"/>
     <use xlink:href="#m2691885def" x="250.917025" y="265.088512" style="fill: #ff0000; stroke: #ff0000"/>
     <use xlink:href="#m2691885def" x="260.755041" y="279.094875" style="fill: #ff0000; stroke: #ff0000"/>
     <use xlink:href="#m2691885def" x="270.593058" y="271.963213" style="fill: #ff0000; stroke: #ff0000"/>
     <use xlink:href="#m2691885def" x="280.431074" y="274.891339" style="fill: #ff0000; stroke: #ff0000"/>
     <use xlink:href="#m2691885def" x="290.269091" y="279.153736" style="fill: #ff0000; stroke: #ff0000"/>
     <use xlink:href="#m2691885def" x="300.107107" y="276.83005" style="fill: #ff0000; stroke: #ff0000"/>
     <use xlink:href="#m2691885def" x="309.945124" y="252.302239" style="fill: #ff0000; stroke: #ff0000"/>
     <use xlink:href="#m2691885def" x="319.78314" y="268.914905" style="fill: #ff0000; stroke: #ff0000"/>
     <use xlink:href="#m2691885def" x="329.621157" y="268.208171" style="fill: #ff0000; stroke: #ff0000"/>
     <use xlink:href="#m2691885def" x="339.459174" y="201.222507" style="fill: #ff0000; stroke: #ff0000"/>
     <use xlink:href="#m2691885def" x="349.29719" y="227.437158" style="fill: #ff0000; stroke: #ff0000"/>
     <use xlink:href="#m2691885def" x="359.135207" y="238.631567" style="fill: #ff0000; stroke: #ff0000"/>
     <use xlink:href="#m2691885def" x="368.973223" y="244.413677" style="fill: #ff0000; stroke: #ff0000"/>
     <use xlink:href="#m2691885def" x="378.81124" y="229.135354" style="fill: #ff0000; stroke: #ff0000"/>
     <use xlink:href="#m2691885def" x="388.649256" y="225.980034" style="fill: #ff0000; stroke: #ff0000"/>
     <use xlink:href="#m2691885def" x="398.487273" y="257.434314" style="fill: #ff0000; stroke: #ff0000"/>
    </g>
   </g>
   <g id="matplotlib.axis_1">
    <g id="xtick_1">
     <g id="line2d_1">
      <defs>
       <path id="m19b004e272" d="M 0 0 
L 0 3.5 
" style="stroke: #000000; stroke-width: 0.8"/>
      </defs>
      <g>
       <use xlink:href="#m19b004e272" x="103.346777" y="307.584" style="stroke: #000000; stroke-width: 0.8"/>
      </g>
     </g>
     <g id="text_1">
      <!-- 250 -->
      <g transform="translate(93.803027 322.182437)scale(0.1 -0.1)">
       <defs>
        <path id="DejaVuSans-32" d="M 1228 531 
L 3431 531 
L 3431 0 
L 469 0 
L 469 531 
Q 828 903 1448 1529 
Q 2069 2156 2228 2338 
Q 2531 2678 2651 2914 
Q 2772 3150 2772 3378 
Q 2772 3750 2511 3984 
Q 2250 4219 1831 4219 
Q 1534 4219 1204 4116 
Q 875 4013 500 3803 
L 500 4441 
Q 881 4594 1212 4672 
Q 1544 4750 1819 4750 
Q 2544 4750 2975 4387 
Q 3406 4025 3406 3419 
Q 3406 3131 3298 2873 
Q 3191 2616 2906 2266 
Q 2828 2175 2409 1742 
Q 1991 1309 1228 531 
z
" transform="scale(0.015625)"/>
        <path id="DejaVuSans-35" d="M 691 4666 
L 3169 4666 
L 3169 4134 
L 1269 4134 
L 1269 2991 
Q 1406 3038 1543 3061 
Q 1681 3084 1819 3084 
Q 2600 3084 3056 2656 
Q 3513 2228 3513 1497 
Q 3513 744 3044 326 
Q 2575 -91 1722 -91 
Q 1428 -91 1123 -41 
Q 819 9 494 109 
L 494 744 
Q 775 591 1075 516 
Q 1375 441 1709 441 
Q 2250 441 2565 725 
Q 2881 1009 2881 1497 
Q 2881 1984 2565 2268 
Q 2250 2553 1709 2553 
Q 1456 2553 1204 2497 
Q 953 2441 691 2322 
L 691 4666 
z
" transform="scale(0.015625)"/>
        <path id="DejaVuSans-30" d="M 2034 4250 
Q 1547 4250 1301 3770 
Q 1056 3291 1056 2328 
Q 1056 1369 1301 889 
Q 1547 409 2034 409 
Q 2525 409 2770 889 
Q 3016 1369 3016 2328 
Q 3016 3291 2770 3770 
Q 2525 4250 2034 4250 
z
M 2034 4750 
Q 2819 4750 3233 4129 
Q 3647 3509 3647 2328 
Q 3647 1150 3233 529 
Q 2819 -91 2034 -91 
Q 1250 -91 836 529 
Q 422 1150 422 2328 
Q 422 3509 836 4129 
Q 1250 4750 2034 4750 
z
" transform="scale(0.015625)"/>
       </defs>
       <use xlink:href="#DejaVuSans-32"/>
       <use xlink:href="#DejaVuSans-35" x="63.623047"/>
       <use xlink:href="#DejaVuSans-30" x="127.246094"/>
      </g>
     </g>
    </g>
    <g id="xtick_2">
     <g id="line2d_2">
      <g>
       <use xlink:href="#m19b004e272" x="152.53686" y="307.584" style="stroke: #000000; stroke-width: 0.8"/>
      </g>
     </g>
     <g id="text_2">
      <!-- 500 -->
      <g transform="translate(142.99311 322.182437)scale(0.1 -0.1)">
       <use xlink:href="#DejaVuSans-35"/>
       <use xlink:href="#DejaVuSans-30" x="63.623047"/>
       <use xlink:href="#DejaVuSans-30" x="127.246094"/>
      </g>
     </g>
    </g>
    <g id="xtick_3">
     <g id="line2d_3">
      <g>
       <use xlink:href="#m19b004e272" x="201.726942" y="307.584" style="stroke: #000000; stroke-width: 0.8"/>
      </g>
     </g>
     <g id="text_3">
      <!-- 750 -->
      <g transform="translate(192.183192 322.182437)scale(0.1 -0.1)">
       <defs>
        <path id="DejaVuSans-37" d="M 525 4666 
L 3525 4666 
L 3525 4397 
L 1831 0 
L 1172 0 
L 2766 4134 
L 525 4134 
L 525 4666 
z
" transform="scale(0.015625)"/>
       </defs>
       <use xlink:href="#DejaVuSans-37"/>
       <use xlink:href="#DejaVuSans-35" x="63.623047"/>
       <use xlink:href="#DejaVuSans-30" x="127.246094"/>
      </g>
     </g>
    </g>
    <g id="xtick_4">
     <g id="line2d_4">
      <g>
       <use xlink:href="#m19b004e272" x="250.917025" y="307.584" style="stroke: #000000; stroke-width: 0.8"/>
      </g>
     </g>
     <g id="text_4">
      <!-- 1000 -->
      <g transform="translate(238.192025 322.182437)scale(0.1 -0.1)">
       <defs>
        <path id="DejaVuSans-31" d="M 794 531 
L 1825 531 
L 1825 4091 
L 703 3866 
L 703 4441 
L 1819 4666 
L 2450 4666 
L 2450 531 
L 3481 531 
L 3481 0 
L 794 0 
L 794 531 
z
" transform="scale(0.015625)"/>
       </defs>
       <use xlink:href="#DejaVuSans-31"/>
       <use xlink:href="#DejaVuSans-30" x="63.623047"/>
       <use xlink:href="#DejaVuSans-30" x="127.246094"/>
       <use xlink:href="#DejaVuSans-30" x="190.869141"/>
      </g>
     </g>
    </g>
    <g id="xtick_5">
     <g id="line2d_5">
      <g>
       <use xlink:href="#m19b004e272" x="300.107107" y="307.584" style="stroke: #000000; stroke-width: 0.8"/>
      </g>
     </g>
     <g id="text_5">
      <!-- 1250 -->
      <g transform="translate(287.382107 322.182437)scale(0.1 -0.1)">
       <use xlink:href="#DejaVuSans-31"/>
       <use xlink:href="#DejaVuSans-32" x="63.623047"/>
       <use xlink:href="#DejaVuSans-35" x="127.246094"/>
       <use xlink:href="#DejaVuSans-30" x="190.869141"/>
      </g>
     </g>
    </g>
    <g id="xtick_6">
     <g id="line2d_6">
      <g>
       <use xlink:href="#m19b004e272" x="349.29719" y="307.584" style="stroke: #000000; stroke-width: 0.8"/>
      </g>
     </g>
     <g id="text_6">
      <!-- 1500 -->
      <g transform="translate(336.57219 322.182437)scale(0.1 -0.1)">
       <use xlink:href="#DejaVuSans-31"/>
       <use xlink:href="#DejaVuSans-35" x="63.623047"/>
       <use xlink:href="#DejaVuSans-30" x="127.246094"/>
       <use xlink:href="#DejaVuSans-30" x="190.869141"/>
      </g>
     </g>
    </g>
    <g id="xtick_7">
     <g id="line2d_7">
      <g>
       <use xlink:href="#m19b004e272" x="398.487273" y="307.584" style="stroke: #000000; stroke-width: 0.8"/>
      </g>
     </g>
     <g id="text_7">
      <!-- 1750 -->
      <g transform="translate(385.762273 322.182437)scale(0.1 -0.1)">
       <use xlink:href="#DejaVuSans-31"/>
       <use xlink:href="#DejaVuSans-37" x="63.623047"/>
       <use xlink:href="#DejaVuSans-35" x="127.246094"/>
       <use xlink:href="#DejaVuSans-30" x="190.869141"/>
      </g>
     </g>
    </g>
   </g>
   <g id="matplotlib.axis_2">
    <g id="ytick_1">
     <g id="line2d_8">
      <defs>
       <path id="m50d90a969c" d="M 0 0 
L -3.5 0 
" style="stroke: #000000; stroke-width: 0.8"/>
      </defs>
      <g>
       <use xlink:href="#m50d90a969c" x="57.6" y="295.494263" style="stroke: #000000; stroke-width: 0.8"/>
      </g>
     </g>
     <g id="text_8">
      <!-- 0.0 -->
      <g transform="translate(34.696875 299.293482)scale(0.1 -0.1)">
       <defs>
        <path id="DejaVuSans-2e" d="M 684 794 
L 1344 794 
L 1344 0 
L 684 0 
L 684 794 
z
" transform="scale(0.015625)"/>
       </defs>
       <use xlink:href="#DejaVuSans-30"/>
       <use xlink:href="#DejaVuSans-2e" x="63.623047"/>
       <use xlink:href="#DejaVuSans-30" x="95.410156"/>
      </g>
     </g>
    </g>
    <g id="ytick_2">
     <g id="line2d_9">
      <g>
       <use xlink:href="#m50d90a969c" x="57.6" y="238.583098" style="stroke: #000000; stroke-width: 0.8"/>
      </g>
     </g>
     <g id="text_9">
      <!-- 0.5 -->
      <g transform="translate(34.696875 242.382317)scale(0.1 -0.1)">
       <use xlink:href="#DejaVuSans-30"/>
       <use xlink:href="#DejaVuSans-2e" x="63.623047"/>
       <use xlink:href="#DejaVuSans-35" x="95.410156"/>
      </g>
     </g>
    </g>
    <g id="ytick_3">
     <g id="line2d_10">
      <g>
       <use xlink:href="#m50d90a969c" x="57.6" y="181.671933" style="stroke: #000000; stroke-width: 0.8"/>
      </g>
     </g>
     <g id="text_10">
      <!-- 1.0 -->
      <g transform="translate(34.696875 185.471152)scale(0.1 -0.1)">
       <use xlink:href="#DejaVuSans-31"/>
       <use xlink:href="#DejaVuSans-2e" x="63.623047"/>
       <use xlink:href="#DejaVuSans-30" x="95.410156"/>
      </g>
     </g>
    </g>
    <g id="ytick_4">
     <g id="line2d_11">
      <g>
       <use xlink:href="#m50d90a969c" x="57.6" y="124.760768" style="stroke: #000000; stroke-width: 0.8"/>
      </g>
     </g>
     <g id="text_11">
      <!-- 1.5 -->
      <g transform="translate(34.696875 128.559987)scale(0.1 -0.1)">
       <use xlink:href="#DejaVuSans-31"/>
       <use xlink:href="#DejaVuSans-2e" x="63.623047"/>
       <use xlink:href="#DejaVuSans-35" x="95.410156"/>
      </g>
     </g>
    </g>
    <g id="ytick_5">
     <g id="line2d_12">
      <g>
       <use xlink:href="#m50d90a969c" x="57.6" y="67.849603" style="stroke: #000000; stroke-width: 0.8"/>
      </g>
     </g>
     <g id="text_12">
      <!-- 2.0 -->
      <g transform="translate(34.696875 71.648821)scale(0.1 -0.1)">
       <use xlink:href="#DejaVuSans-32"/>
       <use xlink:href="#DejaVuSans-2e" x="63.623047"/>
       <use xlink:href="#DejaVuSans-30" x="95.410156"/>
      </g>
     </g>
    </g>
    <g id="text_13">
     <!-- 1e9 -->
     <g transform="translate(57.6 38.472)scale(0.1 -0.1)">
      <defs>
       <path id="DejaVuSans-65" d="M 3597 1894 
L 3597 1613 
L 953 1613 
Q 991 1019 1311 708 
Q 1631 397 2203 397 
Q 2534 397 2845 478 
Q 3156 559 3463 722 
L 3463 178 
Q 3153 47 2828 -22 
Q 2503 -91 2169 -91 
Q 1331 -91 842 396 
Q 353 884 353 1716 
Q 353 2575 817 3079 
Q 1281 3584 2069 3584 
Q 2775 3584 3186 3129 
Q 3597 2675 3597 1894 
z
M 3022 2063 
Q 3016 2534 2758 2815 
Q 2500 3097 2075 3097 
Q 1594 3097 1305 2825 
Q 1016 2553 972 2059 
L 3022 2063 
z
" transform="scale(0.015625)"/>
       <path id="DejaVuSans-39" d="M 703 97 
L 703 672 
Q 941 559 1184 500 
Q 1428 441 1663 441 
Q 2288 441 2617 861 
Q 2947 1281 2994 2138 
Q 2813 1869 2534 1725 
Q 2256 1581 1919 1581 
Q 1219 1581 811 2004 
Q 403 2428 403 3163 
Q 403 3881 828 4315 
Q 1253 4750 1959 4750 
Q 2769 4750 3195 4129 
Q 3622 3509 3622 2328 
Q 3622 1225 3098 567 
Q 2575 -91 1691 -91 
Q 1453 -91 1209 -44 
Q 966 3 703 97 
z
M 1959 2075 
Q 2384 2075 2632 2365 
Q 2881 2656 2881 3163 
Q 2881 3666 2632 3958 
Q 2384 4250 1959 4250 
Q 1534 4250 1286 3958 
Q 1038 3666 1038 3163 
Q 1038 2656 1286 2365 
Q 1534 2075 1959 2075 
z
" transform="scale(0.015625)"/>
      </defs>
      <use xlink:href="#DejaVuSans-31"/>
      <use xlink:href="#DejaVuSans-65" x="63.623047"/>
      <use xlink:href="#DejaVuSans-39" x="125.146484"/>
     </g>
    </g>
   </g>
   <g id="patch_3">
    <path d="M 57.6 307.584 
L 57.6 41.472 
" style="fill: none; stroke: #000000; stroke-width: 0.8; stroke-linejoin: miter; stroke-linecap: square"/>
   </g>
   <g id="patch_4">
    <path d="M 414.72 307.584 
L 414.72 41.472 
" style="fill: none; stroke: #000000; stroke-width: 0.8; stroke-linejoin: miter; stroke-linecap: square"/>
   </g>
   <g id="patch_5">
    <path d="M 57.6 307.584 
L 414.72 307.584 
" style="fill: none; stroke: #000000; stroke-width: 0.8; stroke-linejoin: miter; stroke-linecap: square"/>
   </g>
   <g id="patch_6">
    <path d="M 57.6 41.472 
L 414.72 41.472 
" style="fill: none; stroke: #000000; stroke-width: 0.8; stroke-linejoin: miter; stroke-linecap: square"/>
   </g>
   <g id="text_14">
    <!-- lizak -->
    <g transform="translate(222.525937 35.472)scale(0.12 -0.12)">
     <defs>
      <path id="DejaVuSans-6c" d="M 603 4863 
L 1178 4863 
L 1178 0 
L 603 0 
L 603 4863 
z
" transform="scale(0.015625)"/>
      <path id="DejaVuSans-69" d="M 603 3500 
L 1178 3500 
L 1178 0 
L 603 0 
L 603 3500 
z
M 603 4863 
L 1178 4863 
L 1178 4134 
L 603 4134 
L 603 4863 
z
" transform="scale(0.015625)"/>
      <path id="DejaVuSans-7a" d="M 353 3500 
L 3084 3500 
L 3084 2975 
L 922 459 
L 3084 459 
L 3084 0 
L 275 0 
L 275 525 
L 2438 3041 
L 353 3041 
L 353 3500 
z
" transform="scale(0.015625)"/>
      <path id="DejaVuSans-61" d="M 2194 1759 
Q 1497 1759 1228 1600 
Q 959 1441 959 1056 
Q 959 750 1161 570 
Q 1363 391 1709 391 
Q 2188 391 2477 730 
Q 2766 1069 2766 1631 
L 2766 1759 
L 2194 1759 
z
M 3341 1997 
L 3341 0 
L 2766 0 
L 2766 531 
Q 2569 213 2275 61 
Q 1981 -91 1556 -91 
Q 1019 -91 701 211 
Q 384 513 384 1019 
Q 384 1609 779 1909 
Q 1175 2209 1959 2209 
L 2766 2209 
L 2766 2266 
Q 2766 2663 2505 2880 
Q 2244 3097 1772 3097 
Q 1472 3097 1187 3025 
Q 903 2953 641 2809 
L 641 3341 
Q 956 3463 1253 3523 
Q 1550 3584 1831 3584 
Q 2591 3584 2966 3190 
Q 3341 2797 3341 1997 
z
" transform="scale(0.015625)"/>
      <path id="DejaVuSans-6b" d="M 581 4863 
L 1159 4863 
L 1159 1991 
L 2875 3500 
L 3609 3500 
L 1753 1863 
L 3688 0 
L 2938 0 
L 1159 1709 
L 1159 0 
L 581 0 
L 581 4863 
z
" transform="scale(0.015625)"/>
     </defs>
     <use xlink:href="#DejaVuSans-6c"/>
     <use xlink:href="#DejaVuSans-69" x="27.783203"/>
     <use xlink:href="#DejaVuSans-7a" x="55.566406"/>
     <use xlink:href="#DejaVuSans-61" x="108.056641"/>
     <use xlink:href="#DejaVuSans-6b" x="169.335938"/>
    </g>
   </g>
  </g>
 </g>
 <defs>
  <clipPath id="pd7694f6ffe">
   <rect x="57.6" y="41.472" width="357.12" height="266.112"/>
  </clipPath>
 </defs>
</svg>
